<?xml version="1.0" encoding="UTF-8"?>
<svg version="1.1" xmlns="http://www.w3.org/2000/svg" width="512" height="512">
<path d="M0 0 C0.82758873 -0.00453111 1.65517745 -0.00906223 2.50784463 -0.01373065 C5.2790649 -0.02638394 8.05008888 -0.02475367 10.82133484 -0.02310181 C12.80906934 -0.02908649 14.79680152 -0.0358919 16.78453064 -0.04345703 C22.18337228 -0.06113074 27.58215053 -0.065813 32.9810183 -0.0670886 C37.48890737 -0.06898797 41.99678169 -0.07634597 46.50466508 -0.08343279 C57.14131651 -0.09971971 67.77793409 -0.10460148 78.41459656 -0.10317993 C89.38399087 -0.10197853 100.35318843 -0.12307941 111.32253295 -0.15466726 C120.74264778 -0.18082645 130.16269833 -0.19154737 139.5828492 -0.19026911 C145.20800612 -0.18975936 150.83298819 -0.1954501 156.4581089 -0.21662521 C161.74985174 -0.23600134 167.04125286 -0.23613618 172.33300781 -0.22159195 C174.27278836 -0.21950196 176.21259026 -0.22421605 178.15233421 -0.23631287 C180.80556948 -0.25178464 183.45762929 -0.24244473 186.11083984 -0.22705078 C186.87398902 -0.23733791 187.63713819 -0.24762503 188.4234131 -0.25822389 C195.49804895 -0.16784619 201.56982915 2.49425826 206.55839539 7.57992554 C207.1010907 8.11230835 207.64378601 8.64469116 208.20292664 9.19320679 C212.04729157 14.36120117 213.12101291 19.1151784 213.13357544 25.4712677 C213.14165375 26.50695289 213.14165375 26.50695289 213.14989525 27.56356102 C213.16411209 29.85883356 213.15708704 32.15352423 213.14994812 34.44882202 C213.15565499 36.10188253 213.16262047 37.75493911 213.17074585 39.4079895 C213.18865726 43.88529912 213.1875127 48.36241253 213.18180346 52.83974719 C213.17870875 56.582263 213.18480721 60.32474128 213.19084221 64.06725174 C213.20487915 72.89841252 213.20333301 81.72947654 213.19194031 90.56063843 C213.18045918 99.66126098 213.19453654 108.76158882 213.22133678 117.86217254 C213.24351094 125.6857496 213.25012731 133.50923426 213.24426037 141.3328405 C213.24089378 146.00110913 213.24328607 150.66918885 213.2605114 155.33743095 C213.27600588 159.72802952 213.27199738 164.1181923 213.25320625 168.5087738 C213.24952731 170.11636333 213.25260855 171.72398532 213.26309204 173.33154488 C213.31978038 182.74587346 213.24995238 190.02043131 206.85136414 197.47445679 C199.78774236 203.38718296 195.22464632 205.45417242 185.99980164 205.33383179 C185.30213684 205.32903809 184.60447205 205.32424438 183.88566589 205.31930542 C182.17236711 205.3068424 180.4591185 205.28778778 178.74589539 205.26742554 C178.76684265 206.20537964 178.78778992 207.14333374 178.80937195 208.10971069 C178.87778912 211.60981179 178.92781125 215.1091962 178.96562195 218.60971069 C178.9856633 220.12089289 179.01290444 221.63199826 179.0476532 223.14291382 C179.09650647 225.32263197 179.11893763 227.50131985 179.13652039 229.68148804 C179.15746765 230.99069214 179.17841492 232.29989624 179.19999695 233.64877319 C178.66760525 237.8913053 177.42010762 239.97196211 174.74589539 243.26742554 C169.75246283 247.03797665 166.22018683 248.34629614 159.97636414 248.59555054 C154.66760924 247.81457784 150.84892595 244.73345449 147.05839539 241.14242554 C143.60733662 237.94375763 140.10722957 234.89506398 136.43339539 231.95492554 C131.54178956 228.00134072 126.91646637 223.82172205 122.33647156 219.51620483 C118.9061127 216.29797734 115.38506246 213.24838751 111.74589539 210.26742554 C111.59894226 211.43015991 111.45198914 212.59289429 111.30058289 213.79086304 C109.12583269 229.7749403 105.71279038 245.20508518 95.74589539 258.26742554 C95.20191101 259.00348022 94.65792664 259.73953491 94.09745789 260.49789429 C89.35437459 266.43231541 83.47443959 269.90315344 76.74589539 273.26742554 C76.22959155 275.33264087 75.80953079 277.42214365 75.43339539 279.51742554 C71.13144759 300.59910999 59.96419151 315.54130258 43.74589539 329.26742554 C44.26538757 329.67992554 44.78487976 330.09242554 45.32011414 330.51742554 C51.01713361 335.23510525 55.5864505 339.98639825 57.55839539 347.26742554 C57.62027039 347.92742554 57.68214539 348.58742554 57.74589539 349.26742554 C58.36335632 349.29320679 58.98081726 349.31898804 59.61698914 349.34555054 C71.27204085 350.12610195 78.84105192 354.69401322 86.74589539 363.26742554 C89.38559505 366.783608 91.61120466 370.42718294 93.74589539 374.26742554 C94.18417664 375.02281616 94.62245789 375.77820679 95.07402039 376.55648804 C108.90059494 402.021888 116.20059298 440.94935789 109.05839539 469.32992554 C106.89642714 476.59926128 104.73272635 481.80628763 97.93339539 485.70492554 C92.40989408 488.10915125 87.50438399 488.00959519 81.80839539 486.20492554 C76.8025382 484.10853916 72.80972388 480.80712068 68.74589539 477.26742554 C68.09878601 476.70410522 67.45167664 476.14078491 66.78495789 475.56039429 C55.03667692 464.55537191 47.18177649 450.34882294 39.74589539 436.26742554 C39.01886414 437.33219116 38.29183289 438.39695679 37.54277039 439.49398804 C32.45280855 446.87131396 27.28448784 454.09499884 21.43339539 460.89242554 C20.96707703 461.43463745 20.50075867 461.97684937 20.02030945 462.53549194 C0.15393912 485.20496378 -25.88578769 499.95609735 -54.69160461 508.14242554 C-55.36377014 508.33360962 -56.03593567 508.5247937 -56.72846985 508.72177124 C-69.15348372 512.02720604 -81.47763785 512.67451703 -94.25410461 512.64242554 C-95.47766159 512.6416098 -95.47766159 512.6416098 -96.72593689 512.64077759 C-109.6018192 512.60136178 -121.80808304 511.81760218 -134.25410461 508.26742554 C-135.01062317 508.05843628 -135.76714172 507.84944702 -136.54658508 507.63412476 C-160.26546131 500.90411418 -181.13661586 488.87696477 -199.25410461 472.26742554 C-200.07008118 471.51936646 -200.07008118 471.51936646 -200.90254211 470.75619507 C-211.88381492 460.54502913 -220.43603642 449.01960964 -228.25410461 436.26742554 C-228.85996399 437.33219116 -229.46582336 438.39695679 -230.09004211 439.49398804 C-250.5316026 475.06065476 -250.5316026 475.06065476 -267.25410461 484.26742554 C-267.85996399 484.60515991 -268.46582336 484.94289429 -269.09004211 485.29086304 C-274.12806788 487.77568118 -279.06626468 488.31232863 -284.36347961 486.57601929 C-289.8707403 484.10189278 -293.78072052 480.75669498 -296.18769836 475.05648804 C-303.13453917 455.04692744 -300.29225509 429.46635524 -295.25410461 409.26742554 C-295.04511536 408.39086304 -294.8361261 407.51430054 -294.62080383 406.61117554 C-289.92251781 387.24086371 -282.9161617 365.94109549 -265.75410461 354.20492554 C-259.67190379 350.63920332 -254.25532016 349.26742554 -247.25410461 349.26742554 C-247.06847961 348.29805054 -246.88285461 347.32867554 -246.69160461 346.32992554 C-244.60913246 338.99664859 -238.54585981 333.4589926 -233.25410461 328.26742554 C-233.95535461 327.73375366 -234.65660461 327.20008179 -235.37910461 326.65023804 C-250.60530068 314.69270906 -261.57089355 298.42631882 -264.78144836 279.09164429 C-265.01699061 276.81043376 -265.19478658 274.55925883 -265.25410461 272.26742554 C-266.55347961 271.89617554 -266.55347961 271.89617554 -267.87910461 271.51742554 C-278.73936505 267.49510686 -286.20100599 258.37362278 -291.25410461 248.26742554 C-302.49855505 223.73407913 -302.92357248 193.79902056 -293.93379211 168.45883179 C-289.35941446 156.84791147 -282.92974653 147.0176596 -272.25410461 140.26742554 C-271.22285461 139.88973022 -270.19160461 139.51203491 -269.12910461 139.12289429 C-265.99906002 137.10282475 -265.77770996 136.75946261 -264.85566711 133.38070679 C-264.51218015 131.78420626 -264.18770358 130.18353518 -263.87910461 128.57992554 C-260.70040071 114.66131683 -254.92941783 102.87267684 -245.25410461 92.26742554 C-244.73719055 91.65898804 -244.22027649 91.05055054 -243.68769836 90.42367554 C-232.10866737 77.65481931 -212.99814351 69.06255797 -195.94830894 68.07617569 C-192.07719763 67.99416416 -188.20858297 67.9737465 -184.33686829 67.97689819 C-182.85583664 67.97090264 -181.3748081 67.96409475 -179.89378357 67.95654297 C-175.90034874 67.93899372 -171.90699978 67.93419269 -167.91353011 67.9329114 C-165.41585838 67.93148449 -162.91820813 67.92720502 -160.42054176 67.92191696 C-151.70041656 67.90346304 -142.98035222 67.89524172 -134.26020813 67.89682007 C-126.13932823 67.89802463 -118.01871273 67.87684904 -109.89789981 67.84533274 C-102.91252717 67.81919124 -95.92724115 67.80845167 -88.94181997 67.80973089 C-84.77501388 67.81024056 -80.60844383 67.80455288 -76.44168663 67.78337479 C-72.52875144 67.76402462 -68.61627859 67.7638454 -64.70332718 67.77840805 C-63.26862348 67.78050032 -61.83389102 67.77577027 -60.39923668 67.76368713 C-58.43975944 67.7482526 -56.48012469 67.75993363 -54.52062988 67.77294922 C-52.87673672 67.77131492 -52.87673672 67.77131492 -51.1996336 67.7696476 C-47.50957749 68.39324646 -45.81784528 69.56900933 -43.25410461 72.26742554 C-43.25410461 73.58742554 -43.25410461 74.90742554 -43.25410461 76.26742554 C-37.64410461 76.26742554 -32.03410461 76.26742554 -26.25410461 76.26742554 C-26.27505188 74.55232788 -26.29599915 72.83723022 -26.31758118 71.07015991 C-26.38230206 65.37855909 -26.42814292 59.68701143 -26.4613533 53.99514008 C-26.48215355 50.54695422 -26.51032998 47.0991696 -26.55586243 43.6512146 C-26.60797706 39.67958519 -26.6271125 35.70811347 -26.64472961 31.73617554 C-26.66537476 30.50878662 -26.6860199 29.28139771 -26.70729065 28.01681519 C-26.70945852 19.68899473 -25.74732794 14.20433197 -20.07051086 7.80648804 C-18.95482727 6.8590271 -18.95482727 6.8590271 -17.81660461 5.89242554 C-17.07539368 5.24531616 -16.33418274 4.59820679 -15.57051086 3.93148804 C-10.57128158 0.34013614 -6.02029763 -0.02422069 0 0 Z " fill="#373738" transform="translate(299.2541046142578,-0.267425537109375)"/>
<path d="M0 0 C1.17840159 -0.00657338 1.17840159 -0.00657338 2.38060927 -0.01327956 C5.02756594 -0.02669294 7.67448929 -0.0328521 10.32147217 -0.03897095 C12.21348726 -0.04686991 14.10550084 -0.05513874 15.99751282 -0.06375122 C22.22364864 -0.08999506 28.44979128 -0.10528119 34.67596436 -0.11953735 C36.81733963 -0.12489606 38.95871485 -0.13027356 41.10009003 -0.13566971 C50.00620567 -0.15730188 58.91231947 -0.17603939 67.81845474 -0.1872921 C80.59201628 -0.20353602 93.36527383 -0.23672082 106.13872075 -0.29369295 C115.11457682 -0.33236523 124.0903515 -0.35192158 133.06628871 -0.35721266 C138.42992263 -0.36086983 143.79323252 -0.37292995 149.15677643 -0.4053154 C154.20310165 -0.43534817 159.24890596 -0.44172491 164.29530144 -0.42993164 C166.14724352 -0.4297105 167.99920944 -0.43804859 169.8510685 -0.45558548 C172.38058912 -0.47823534 174.90821417 -0.47000275 177.43774414 -0.45410156 C178.16985587 -0.46798365 178.90196761 -0.48186574 179.65626454 -0.49616849 C183.34974125 -0.43899903 185.971344 0.12492848 188.92825508 2.2767849 C191.99639357 5.74587339 192.22259589 7.22162215 192.22128296 11.79574585 C192.22923177 12.44985852 192.23718058 13.1039712 192.24537027 13.77790546 C192.26457134 15.9627241 192.24101876 18.14493692 192.21746826 20.3296814 C192.22232591 21.89865076 192.22976633 23.46761395 192.23959351 25.03656006 C192.25839539 29.29299333 192.23957622 33.5485055 192.21292925 37.80486679 C192.19028496 42.26016109 192.19851643 46.71541054 192.2024231 51.17074585 C192.20418859 58.65258826 192.18203711 66.1340681 192.14520264 73.61581421 C192.10286748 82.2643354 192.09584765 90.91232548 192.10832655 99.5609293 C192.11971846 107.88238598 192.10841725 116.20365572 192.08597946 124.52508545 C192.07669347 128.06566832 192.07493714 131.60613677 192.07915115 135.14672852 C192.08292033 139.31657263 192.06668461 143.48587671 192.03503036 147.65559769 C192.02655005 149.18540843 192.02484005 150.71527401 192.03041077 152.24509811 C192.03686506 154.33467479 192.01867182 156.42264316 191.99423218 158.51205444 C191.98807357 160.26524239 191.98807357 160.26524239 191.98179054 162.05384827 C191.36697109 165.79875002 190.09574729 167.46208339 187.47283936 170.15390015 C184.9653782 171.40763072 183.19053634 171.29583519 180.38690186 171.3296814 C179.37369873 171.35352905 178.36049561 171.37737671 177.31658936 171.40194702 C175.17876871 171.44475532 173.04068619 171.47609287 170.90252686 171.49569702 C169.88674561 171.52341187 168.87096436 171.55112671 167.82440186 171.5796814 C166.42955566 171.60155518 166.42955566 171.60155518 165.00653076 171.62387085 C161.5672371 172.34334537 160.46466053 173.25351393 158.47283936 176.15390015 C158.05501336 179.03084513 157.86807658 181.5409701 157.86346436 184.41952515 C157.8469281 185.21292297 157.83039185 186.0063208 157.81335449 186.82376099 C157.7648832 189.35055284 157.74350648 191.87674295 157.72283936 194.40390015 C157.69467879 196.12007624 157.66475123 197.83622431 157.63299561 199.55233765 C157.559125 203.75280893 157.50954549 207.95294635 157.47283936 212.15390015 C153.45444372 210.29358165 150.58074724 207.62655734 147.41033936 204.59140015 C142.512552 199.98013783 137.48130346 195.65266874 132.23065186 191.44296265 C128.16383616 188.06739041 124.33465606 184.45701382 120.49237061 180.8296814 C119.48819688 179.93512437 118.48156348 179.04332287 117.47283936 178.15390015 C116.93224978 177.64277491 116.39166021 177.13164967 115.83468914 176.60503578 C110.06664236 171.63701004 105.33261092 171.31442052 97.90374756 171.44442749 C96.76944305 171.44022293 95.63513855 171.43601837 94.46646118 171.4316864 C90.73496489 171.4240058 87.004965 171.45751137 83.27362061 171.48983765 C80.67386047 171.48874353 78.07409986 171.48443407 75.47434998 171.47705078 C67.94370589 171.4622878 60.41363637 171.48824839 52.8830719 171.52046967 C42.63565226 171.56165255 32.38849433 171.5712007 22.14101219 171.55195999 C18.31793407 171.55233332 14.49558863 171.5781155 10.67262268 171.60565186 C8.33299771 171.60633657 5.99337218 171.60603412 3.65374756 171.60458374 C2.05851006 171.62626869 2.05851006 171.62626869 0.43104553 171.64839172 C-6.77580826 171.60983437 -6.77580826 171.60983437 -10.66346741 169.25073242 C-13.78881847 165.73441501 -13.65729195 163.55274572 -13.67433167 158.91078186 C-13.67800835 158.26331601 -13.68168504 157.61585017 -13.68547314 156.94876415 C-13.69652624 154.76933215 -13.70035655 152.5899478 -13.7041626 150.41049194 C-13.710426 148.85182544 -13.71707269 147.29316043 -13.72407532 145.73449707 C-13.74149589 141.49268473 -13.75203985 137.25088367 -13.76028085 133.00904441 C-13.76542853 130.359994 -13.77150436 127.71094711 -13.77779198 125.06189919 C-13.7968466 116.77681411 -13.81107743 108.49173796 -13.81940395 100.20663518 C-13.82917981 90.63690514 -13.85550723 81.0674062 -13.89590484 71.49775761 C-13.92604431 64.10491699 -13.94087073 56.7121427 -13.94418496 49.31924182 C-13.94653784 44.90191423 -13.95552903 40.48483344 -13.98064613 36.06757164 C-14.00389423 31.91182095 -14.00817341 27.75648012 -13.99788475 23.6006813 C-13.99738849 22.07567419 -14.00373563 20.55064713 -14.0174408 19.02570152 C-14.03511401 16.9426316 -14.02807828 14.86103995 -14.01490784 12.77796936 C-14.01729619 11.61265529 -14.01968454 10.44734121 -14.02214527 9.24671459 C-13.4223331 5.49890579 -12.15059121 3.84494178 -9.52716064 1.15390015 C-6.48975266 -0.36480385 -3.33272654 0.00223861 0 0 Z " fill="#72C280" transform="translate(303.52716064453125,16.846099853515625)"/>
<path d="M0 0 C1.00574475 -0.00694553 2.01148951 -0.01389106 3.04771137 -0.02104706 C6.40402479 -0.0392836 9.75962871 -0.02906173 13.1159668 -0.01878357 C15.52778654 -0.02584365 17.93960184 -0.03458903 20.35140991 -0.04489136 C26.2138448 -0.06504932 32.07610062 -0.06641579 37.93854785 -0.05826581 C42.70470727 -0.05195602 47.47081015 -0.05311179 52.23696899 -0.05953789 C52.91631416 -0.06043954 53.59565932 -0.0613412 54.2955907 -0.06227018 C55.67583459 -0.06412145 57.05607847 -0.06598401 58.43632233 -0.06785773 C71.3671156 -0.08442082 84.29779963 -0.07572944 97.22858632 -0.05887216 C109.0500457 -0.04417365 120.87125095 -0.05880822 132.69267762 -0.08764232 C144.84289057 -0.11705682 156.99298631 -0.12800282 169.1432333 -0.11846012 C170.51828955 -0.11743761 171.89334581 -0.11644299 173.2684021 -0.11547661 C174.28313039 -0.11476202 174.28313039 -0.11476202 175.31835824 -0.114033 C180.07667423 -0.11187173 184.83487886 -0.12165749 189.59317017 -0.13624763 C196.00204293 -0.15562552 202.41055864 -0.14865646 208.81941605 -0.12404823 C211.17039377 -0.11903779 213.52140745 -0.12253604 215.87235641 -0.13519669 C219.08390483 -0.15112288 222.29389605 -0.1361787 225.50537109 -0.11352539 C226.43378469 -0.12536112 227.36219828 -0.13719685 228.31874561 -0.14939123 C236.06250497 -0.03855802 240.83032672 2.66358192 246.31518555 8.0146637 C247.75268555 10.5146637 247.75268555 10.5146637 247.5769043 12.97169495 C246.58843026 16.02144186 245.5604224 16.83193882 243.00268555 18.7021637 C236.75578114 23.81632601 233.35389841 31.02644916 232.47924805 39.01075745 C232.18440375 47.54990189 233.83325472 55.05264854 236.06176758 63.26637268 C236.29105957 64.13205872 236.52035156 64.99774475 236.7565918 65.8896637 C237.07865601 67.04595276 237.07865601 67.04595276 237.40722656 68.2256012 C238.22644257 73.65384802 235.71082508 77.99684847 233.19018555 82.6396637 C232.83158447 83.30272522 232.4729834 83.96578674 232.10351562 84.64894104 C228.78974356 90.65039747 225.02620357 96.14987232 220.75268555 101.5146637 C220.34147461 102.03270569 219.93026367 102.55074768 219.5065918 103.08448792 C198.76936197 128.99833335 170.25428854 146.07705902 137.75268555 152.5146637 C136.8611377 152.69199036 135.96958984 152.86931702 135.05102539 153.05201721 C127.70309386 154.40204192 120.59162871 154.86597103 113.12768555 154.8271637 C111.99468018 154.82224915 110.8616748 154.81733459 109.69433594 154.81227112 C100.12501874 154.6800514 91.05938363 153.71563163 81.75268555 151.5146637 C81.07012695 151.3590094 80.38756836 151.2033551 79.68432617 151.04298401 C61.96802638 146.86020069 45.1130673 138.65974019 30.75268555 127.5146637 C29.81424805 126.79665588 28.87581055 126.07864807 27.90893555 125.33888245 C13.1626482 113.67854568 1.94188777 100.19448758 -7.37231445 83.9521637 C-7.75081543 83.29772278 -8.12931641 82.64328186 -8.51928711 81.9690094 C-11.16417108 77.18616729 -12.76435389 73.22719151 -11.72387695 67.76856995 C-11.44286133 66.88040588 -11.1618457 65.99224182 -10.87231445 65.0771637 C-7.29182439 53.58278672 -5.52887155 37.72891946 -10.9777832 26.5615387 C-14.22361391 21.32826087 -17.6568523 17.30989477 -23.24731445 14.5146637 C-22.73898965 10.06682167 -21.41162222 7.67897146 -18.24731445 4.5146637 C-12.32539368 0.53122085 -6.99767806 -0.06211266 0 0 Z " fill="#C3D9ED" transform="translate(92.247314453125,340.48533630371094)"/>
<path d="M0 0 C0.69116335 -0.00170885 1.38232669 -0.0034177 2.09443438 -0.00517833 C4.39758711 -0.00845807 6.70044491 0.00250517 9.00357056 0.01345825 C10.65960686 0.01402269 12.31564367 0.01370516 13.97167969 0.01257324 C18.4588286 0.01200002 22.94587033 0.02374944 27.43299437 0.03772116 C32.12551039 0.05023355 36.81802895 0.05139942 41.51055908 0.05377197 C50.39270753 0.05998524 59.27480668 0.076394 68.15693343 0.09647095 C78.27053707 0.1188347 88.38414308 0.12982458 98.4977653 0.13986182 C119.29871952 0.16076035 140.09962652 0.1963368 160.90054321 0.24050903 C160.90054321 5.85050903 160.90054321 11.46050903 160.90054321 17.24050903 C159.04429321 17.96238403 157.18804321 18.68425903 155.27554321 19.42800903 C146.24523148 23.23750599 142.23018879 27.4604708 137.90054321 36.24050903 C137.57054321 36.90050903 137.24054321 37.56050903 136.90054321 38.24050903 C136.27112392 47.16588091 135.8584407 55.47700682 140.90054321 63.24050903 C141.58116821 64.29238403 142.26179321 65.34425903 142.96304321 66.42800903 C148.35444382 72.2253886 154.96544389 75.46671368 162.87979126 75.90530396 C171.78411838 76.002351 178.41012831 74.21460446 185.14273071 68.25613403 C190.12853073 63.10596698 192.61724834 57.99525638 194.90054321 51.24050903 C200.51054321 51.24050903 206.12054321 51.24050903 211.90054321 51.24050903 C211.96850615 59.57729572 212.02346661 67.91386453 212.05597973 76.25085449 C212.0715898 80.12267405 212.09274197 83.99429311 212.12686157 87.86599731 C212.15962255 91.60723828 212.17743121 95.34828722 212.18517494 99.08966064 C212.1906886 100.51211568 212.20145504 101.93456102 212.21773338 103.35693359 C212.33149483 113.71565807 211.88479012 121.77994617 204.65054321 129.70144653 C198.65267661 134.976356 191.85765476 136.38957715 184.09022522 136.38768005 C183.28617424 136.39135674 182.48212325 136.39503343 181.65370709 136.39882153 C178.95009071 136.40986496 176.24651276 136.41370337 173.5428772 136.41751099 C171.60794452 136.42377526 169.67301304 136.43042203 167.73808289 136.43742371 C161.37427612 136.45847499 155.01046908 136.46882873 148.64663696 136.47879028 C146.45551096 136.48283778 144.26438509 136.4869547 142.07325935 136.49114037 C131.77682999 136.51019626 121.4804078 136.52442511 111.18396419 136.53275234 C99.3033936 136.54251944 87.42300959 136.56882362 75.54250473 136.60925323 C66.35764898 136.63943513 57.17284664 136.65422328 47.98794228 136.65753335 C42.50352426 136.65988194 37.01930548 136.66881735 31.53494072 136.69399452 C26.37127213 136.71731567 21.20793335 136.72149212 16.04422569 136.71123314 C14.15365755 136.71073861 12.26307295 136.71703438 10.37255478 136.73078918 C-10.98525628 136.8774285 -10.98525628 136.8774285 -19.97445679 129.11550903 C-28.90273613 119.01793953 -27.72073779 106.57530168 -27.70101929 93.90457153 C-27.70880602 91.81768456 -27.71747797 89.73080072 -27.72698975 87.6439209 C-27.74186392 83.28148092 -27.74136851 78.91936481 -27.73080444 74.55691528 C-27.7192208 68.99320904 -27.75308457 63.43083569 -27.79949379 57.86734962 C-27.82909612 53.56046933 -27.83069478 49.2539054 -27.82447433 44.94694138 C-27.82549436 42.89701066 -27.83584864 40.84706072 -27.85609818 38.79722977 C-28.04134334 17.42517642 -28.04134334 17.42517642 -21.09945679 8.24050903 C-14.9002133 2.17931108 -8.69023322 -0.01298989 0 0 Z " fill="#3B5F95" transform="translate(112.09945678710938,153.75949096679688)"/>
<path d="M0 0 C5.61 0 11.22 0 17 0 C17 20.13 17 40.26 17 61 C11.85245117 61.00410889 6.70490234 61.00821777 1.40136719 61.01245117 C-15.61793593 61.02965879 -32.63708951 61.07392661 -49.65629959 61.13209057 C-59.97368974 61.16669171 -70.29094696 61.19208969 -80.60839844 61.19555664 C-89.6047984 61.19860332 -98.60096131 61.21918827 -107.59726977 61.26052457 C-112.35745625 61.28179244 -117.11730625 61.29448723 -121.87754059 61.28615379 C-126.36584819 61.27857417 -130.85347624 61.29459406 -135.34165955 61.32806015 C-136.98140715 61.33624656 -138.62122293 61.33609917 -140.26096344 61.32659721 C-153.68321094 61.25657136 -164.36260847 63.8454578 -174.80859375 72.765625 C-180.66452409 78.7363775 -183.84141345 86.0178886 -186 94 C-186.17316333 94.61812593 -186.34632666 95.23625185 -186.52473736 95.87310886 C-186.99995772 97.9998108 -187.1336454 99.86255084 -187.14717102 102.03807068 C-187.15432632 102.83254105 -187.16148163 103.62701141 -187.16885376 104.44555664 C-187.17154266 105.30842285 -187.17423157 106.17128906 -187.17700195 107.06030273 C-187.18357315 107.97634781 -187.19014435 108.89239288 -187.19691467 109.8361969 C-187.21662597 112.86866341 -187.22830909 115.9010803 -187.23828125 118.93359375 C-187.24235678 119.97282549 -187.2464323 121.01205723 -187.25063133 122.08278084 C-187.27148865 127.58960902 -187.28578857 133.09641236 -187.29516602 138.60327148 C-187.30619455 144.26536102 -187.34055441 149.92705368 -187.38033772 155.58900356 C-187.4066124 159.96363506 -187.41486774 164.33817383 -187.41844749 168.71287727 C-187.42329002 170.79826584 -187.43483655 172.88365092 -187.45348549 174.96896172 C-187.59025329 191.28396847 -186.83620913 205.78056194 -174.89453125 218.1875 C-170.35740658 222.43568557 -165.80059449 225.73361685 -160 228 C-158.71429328 228.51092996 -158.71429328 228.51092996 -157.40261269 229.03218174 C-153.39647861 230.17166192 -149.66527115 230.28699968 -145.53866577 230.27415466 C-144.70079423 230.27939134 -143.86292268 230.28462802 -142.99966109 230.29002339 C-140.19943243 230.30499348 -137.39938698 230.30572789 -134.59912109 230.30639648 C-132.58817233 230.31402012 -130.57722648 230.32244797 -128.56628418 230.33161926 C-123.10732452 230.35355436 -117.64842088 230.36236216 -112.18942213 230.36744571 C-108.77577649 230.37109125 -105.36214547 230.37733244 -101.9485054 230.3844471 C-90.03027961 230.40894074 -78.11209732 230.42199276 -66.19384766 230.42553711 C-55.1000735 230.42916955 -44.00657648 230.45904441 -32.91288698 230.50094169 C-23.37719129 230.53568699 -13.84158723 230.55108631 -4.30582869 230.55178314 C1.38432041 230.55257468 7.07418731 230.56125638 12.76427078 230.58978081 C18.12093061 230.61603303 23.47707574 230.61812656 28.83377075 230.60212517 C30.79284161 230.60031622 32.75194254 230.60695094 34.71094894 230.62294388 C49.76211548 230.73826374 61.62906786 228.80465066 73 218 C82.97204283 207.68644886 84.7500415 194.59307195 84.70703125 180.85546875 C84.72018267 179.34945201 84.73549728 177.84345279 84.75285339 176.33747864 C84.792315 172.41993704 84.80286835 168.50286084 84.80688477 164.58514404 C84.81629051 160.56899235 84.85374941 156.55310589 84.88867188 152.53710938 C84.95285117 144.69135599 84.98381477 136.84602609 85 129 C90.61 129 96.22 129 102 129 C102.04529502 137.85831299 102.08194151 146.71654829 102.10362434 155.57495117 C102.11403422 159.68884607 102.12814198 163.8026572 102.15087891 167.91650391 C102.17270748 171.89115211 102.18458963 175.86572004 102.18975449 179.84042358 C102.19343234 181.35217552 102.20061403 182.86392337 102.21146011 184.37564087 C102.33921604 202.93042647 97.52152051 217.56356467 84.75390625 231.44140625 C69.39644466 246.34495271 51.23459545 248.45632271 30.84204102 248.40405273 C28.82197697 248.4097639 26.80191615 248.41673104 24.78186035 248.42485046 C19.32521355 248.44271366 13.86872817 248.44162647 8.41206098 248.43590808 C3.84463924 248.43280654 -0.72275193 248.43891933 -5.2901693 248.44494683 C-16.07050684 248.45896777 -26.85076509 248.4574508 -37.63110352 248.44604492 C-48.72722571 248.43456389 -59.82310619 248.44864482 -70.91919655 248.4754414 C-80.47117222 248.49763947 -90.02307225 248.50422658 -99.57507187 248.49836498 C-105.26901897 248.49500432 -110.96281114 248.49735131 -116.65673637 248.51461601 C-122.01262167 248.5301488 -127.36815038 248.52605949 -132.72402191 248.50731087 C-134.68105313 248.5036426 -136.63811116 248.50668156 -138.59511757 248.51719666 C-153.89194725 248.59306573 -166.07101505 246.94417217 -179 238 C-179.75925781 237.49855469 -180.51851562 236.99710938 -181.30078125 236.48046875 C-195.24232676 226.58413852 -202.1251315 211.39401618 -205 195 C-205.38172956 190.50024802 -205.41148394 186.03554961 -205.38818359 181.52148438 C-205.39344055 180.24324295 -205.39869751 178.96500153 -205.40411377 177.64802551 C-205.4176366 174.18306764 -205.41255198 170.7183817 -205.40297651 167.25341988 C-205.39530091 163.60135369 -205.40244718 159.94930846 -205.40713501 156.29724121 C-205.41256983 150.16800827 -205.40546109 144.03888431 -205.39111328 137.90966797 C-205.37479111 130.85624821 -205.38008124 123.80308874 -205.3965925 116.74967527 C-205.41027263 110.65836747 -205.41209536 104.56713734 -205.40427649 98.47581911 C-205.3996356 94.85323613 -205.39887492 91.23077489 -205.40888596 87.60820007 C-205.41928245 83.56481897 -205.40481251 79.52187596 -205.38818359 75.47851562 C-205.39425629 74.30202957 -205.40032898 73.12554352 -205.40658569 71.91340637 C-205.26972768 53.82362759 -199.29461028 39.21300912 -187.1171875 25.94921875 C-182.61185451 21.53810375 -177.70154859 18.52669718 -172.125 15.6875 C-171.48957275 15.36193115 -170.85414551 15.0363623 -170.19946289 14.70092773 C-159.74210162 9.64252603 -149.72560008 8.5578761 -138.21289062 8.59936523 C-136.75802043 8.59361037 -135.30315499 8.58652258 -133.84829712 8.57821655 C-130.73870925 8.56320615 -127.62929193 8.55732016 -124.51966858 8.55874443 C-119.60314514 8.56079044 -114.68684914 8.54113321 -109.77038574 8.51856995 C-100.23312484 8.47775282 -90.69588257 8.45901372 -81.15855408 8.44239807 C-68.9895791 8.41997817 -56.82065706 8.38656417 -44.65176916 8.33519894 C-39.76278823 8.31527144 -34.87392807 8.30569712 -29.9849081 8.30424678 C-26.95174349 8.30150151 -23.91864605 8.29068408 -20.88550949 8.27773666 C-19.47739152 8.27344911 -18.06925833 8.27260227 -16.66113663 8.27541161 C-14.74255076 8.27880117 -12.82395498 8.26890546 -10.90539551 8.25828552 C-9.29386974 8.25583407 -9.29386974 8.25583407 -7.6497879 8.25333309 C-4.77093743 8.18889929 -4.77093743 8.18889929 -2 6 C-1.34 4.02 -0.68 2.04 0 0 Z " fill="#D8E8FC" transform="translate(256,76)"/>
<path d="M0 0 C7.2014247 6.75843485 12.70445279 16.10004427 13.0859375 26.125 C13.48730754 39.77017806 11.33750473 50.62334779 1.8125 61 C-7.32903761 70.25556927 -17.03118754 74.13695721 -30 74.375 C-42.52866152 74.34894687 -50.97024208 69.79335397 -59.9375 61.4375 C-60.68 60.633125 -61.4225 59.82875 -62.1875 59 C-63.1775 57.948125 -63.1775 57.948125 -64.1875 56.875 C-71.23665386 46.74184133 -73.18641251 36.16984956 -72.1875 24 C-70.4533836 16.45907097 -66.9250455 10.06313609 -62.1875 4 C-61.70925781 3.38382812 -61.23101562 2.76765625 -60.73828125 2.1328125 C-44.76740791 -15.97019255 -17.49714 -14.44839591 0 0 Z " fill="#383839" transform="translate(234.1875,378)"/>
<path d="M0 0 C4.01441753 2.19656808 7.23469613 4.65689227 9.3125 8.8125 C11.25012859 37.95145309 -4.88124857 67.83997245 -23.14453125 89.76171875 C-26.72181521 93.82546587 -30.21812503 97.71130104 -34.6875 100.8125 C-36.0075 100.8125 -37.3275 100.8125 -38.6875 100.8125 C-47.89780084 85.46199859 -41.08203237 57.63741461 -37.0625 41.5 C-33.33039613 27.29283717 -28.21455941 8.84415364 -15.25 0.25 C-9.60568807 -2.02752938 -5.75772414 -1.85418235 0 0 Z " fill="#D9E9FC" transform="translate(58.6875,368.1875)"/>
<path d="M0 0 C16.28430602 11.43366168 21.9331793 34.54265972 25.41821289 53.11987305 C26.976858 62.52868494 27.2086158 71.91262996 27.25 81.4375 C27.25563965 82.69232178 27.2612793 83.94714355 27.26708984 85.23999023 C27.22094649 90.99969747 26.98224581 95.62171581 24.9375 101.0625 C19.63961365 100.67961441 16.88808611 98.84600903 13.3125 95.125 C12.80033936 94.59994873 12.28817871 94.07489746 11.76049805 93.53393555 C-6.49184109 74.07869626 -23.43384234 42.68361056 -24.4375 15.625 C-24.24815595 10.7493908 -23.15982984 7.17129066 -19.6328125 3.625 C-13.72686492 -1.54637698 -7.39186663 -2.26281631 0 0 Z " fill="#D9E9FC" transform="translate(365.0625,367.9375)"/>
<path d="M0 0 C0.92555191 -0.00761353 1.85110382 -0.01522705 2.80470276 -0.02307129 C4.75364497 -0.03383127 6.70264465 -0.03674217 8.65161133 -0.03222656 C11.61703477 -0.03125389 14.57987103 -0.07292934 17.54492188 -0.1171875 C19.44660924 -0.12239516 21.34830551 -0.12508268 23.25 -0.125 C24.12732285 -0.14139526 25.00464569 -0.15779053 25.90855408 -0.17468262 C32.13623414 -0.10550323 36.40320401 1.42114803 41.19140625 5.46875 C44.66496633 9.58395407 45.86465075 13.51209785 45.5625 18.88671875 C43.77960406 31.29192102 38.88436283 39.14170292 29.12890625 46.90625 C20.3549446 51.57325088 11.16038176 53.81965806 1.25488281 50.89746094 C-9.37408828 46.88085747 -16.31591181 40.44654216 -21.08203125 30.23046875 C-23.59431151 24.13886448 -23.55508421 17.95747476 -22.80859375 11.46875 C-20.52403638 6.05108538 -17.30522288 3.36067106 -11.90293884 1.11320496 C-7.99503507 -0.08930363 -4.05946312 0.00092983 0 0 Z " fill="#373738" transform="translate(193.80859375,221.53125)"/>
<path d="M0 0 C6.76473346 4.77653223 11.6737015 10.53104502 14.1796875 18.5390625 C15.31677604 27.45167078 14.60436846 35.73439407 9.328125 43.13671875 C3.58858794 50.02213512 -2.18798917 54.89137707 -11.28515625 55.9375 C-20.94187468 56.2054559 -28.09204447 54.58727226 -35.8203125 48.5390625 C-41.72468574 42.75017822 -45.13830838 36.72863202 -45.33984375 28.38623047 C-45.33339844 27.67354004 -45.32695313 26.96084961 -45.3203125 26.2265625 C-45.31386719 25.48035645 -45.30742188 24.73415039 -45.30078125 23.96533203 C-45.05328082 16.46053281 -43.07380821 11.0464244 -37.91796875 5.48828125 C-27.54804302 -4.12529673 -12.69193459 -7.44870915 0 0 Z " fill="#373838" transform="translate(147.8203125,174.4609375)"/>
<path d="M0 0 C1.40148555 -0.00677867 2.80296219 -0.01568322 4.204422 -0.02655029 C8.00414989 -0.04932132 11.8031981 -0.04051695 15.6029377 -0.02465487 C19.58178649 -0.01198423 23.5605776 -0.02373919 27.53942871 -0.03158569 C34.22089065 -0.04067891 40.90207614 -0.02870312 47.58349609 -0.00488281 C55.3050564 0.02232809 63.02595659 0.01351368 70.7475009 -0.01401484 C77.38037877 -0.03671442 84.01305807 -0.03990192 90.64596224 -0.02682149 C94.60605977 -0.01903155 98.56584715 -0.01797252 102.52592468 -0.03450394 C106.24935956 -0.04896211 109.97194453 -0.03890387 113.6952877 -0.01003265 C115.71126008 -0.00028184 117.72730445 -0.01511063 119.74324036 -0.03067017 C129.59335701 0.08478521 129.59335701 0.08478521 132.70056152 2.9647522 C134.92074797 6.50056446 135.05585023 8.54590009 134.38476562 12.64697266 C132.51768058 15.01194705 131.06415132 16.30727981 128.38476562 17.64697266 C126.5210623 17.75120754 124.65362215 17.79086029 122.78703308 17.8008728 C121.59669968 17.80947327 120.40636627 17.81807373 119.17996216 17.82693481 C117.21082352 17.83332474 117.21082352 17.83332474 115.2019043 17.83984375 C113.8107228 17.84774406 112.41954336 17.85601296 111.02836609 17.86462402 C106.45317545 17.89085154 101.87797562 17.90615196 97.30273438 17.92041016 C95.72844245 17.92576946 94.15415058 17.93114697 92.57985878 17.93654251 C86.03193423 17.95817194 79.48401215 17.97690921 72.93606091 17.9881649 C63.54815639 18.00440789 54.16066553 18.03759298 44.77291697 18.09456575 C38.17412691 18.13324917 31.57544755 18.15279564 24.97654706 18.15808547 C21.03421228 18.16174106 17.0923186 18.17378359 13.15010643 18.2061882 C9.44077408 18.23624142 5.73215034 18.24259108 2.02272224 18.23080444 C0.01379902 18.23047817 -1.99508028 18.25496202 -4.00384521 18.28018188 C-13.82214068 18.21205226 -13.82214068 18.21205226 -16.92436218 15.32925415 C-19.17835584 11.75367612 -19.35670387 9.79920182 -18.61523438 5.64697266 C-14.24127867 -1.29263749 -7.5120487 -0.05798003 0 0 Z " fill="#373737" transform="translate(334.615234375,93.35302734375)"/>
<path d="M0 0 C1.18336441 -0.00426498 2.36672882 -0.00852997 3.58595276 -0.01292419 C4.89093216 -0.01247101 6.19591156 -0.01201782 7.54043579 -0.0115509 C8.92338655 -0.01454183 10.30633647 -0.0179442 11.68928528 -0.02172852 C15.45171657 -0.03058011 19.21412514 -0.03290713 22.97656584 -0.0335443 C26.11526119 -0.03449266 29.25395122 -0.03817017 32.39264452 -0.0417164 C39.797217 -0.04986557 47.20177732 -0.05230023 54.60635376 -0.05158997 C62.24871831 -0.05098922 69.89101225 -0.06153929 77.53335893 -0.07733363 C84.09052341 -0.09040316 90.6476648 -0.0957741 97.20484221 -0.09513456 C101.12294915 -0.09487937 105.04099339 -0.09774176 108.95908737 -0.10831261 C112.6444493 -0.1179836 116.32968848 -0.11807968 120.0150547 -0.11079597 C122.013374 -0.10924926 124.01169325 -0.11760409 126.00999451 -0.12623596 C127.19899857 -0.12204147 128.38800262 -0.11784698 129.61303711 -0.11352539 C131.16328362 -0.11434254 131.16328362 -0.11434254 132.74484825 -0.1151762 C135.52977383 0.14262464 137.11657022 0.59185363 139.4335022 2.13371277 C141.93381874 5.88418759 141.96953774 7.69227543 141.4335022 12.13371277 C139.78606177 14.77345025 139.10049351 15.71347348 136.4335022 17.13371277 C131.90273876 17.89939454 127.403843 17.81607814 122.81826782 17.78068542 C121.41678227 17.7874641 120.01530564 17.79636864 118.61384583 17.80723572 C114.81411793 17.83000675 111.01506972 17.82120237 107.21533012 17.80534029 C103.23648133 17.79266966 99.25769022 17.80442462 95.27883911 17.81227112 C88.59737717 17.82136434 81.91619168 17.80938855 75.23477173 17.78556824 C67.51321142 17.75835733 59.79231124 17.76717175 52.07076693 17.79470026 C45.43788905 17.81739985 38.80520975 17.82058735 32.17230558 17.80750692 C28.21220805 17.79971697 24.25242067 17.79865794 20.29234314 17.81518936 C16.56890826 17.82964754 12.8463233 17.81958929 9.12298012 17.79071808 C7.10700774 17.78096727 5.09096337 17.79579605 3.07502747 17.81135559 C-6.77508918 17.69590021 -6.77508918 17.69590021 -9.8822937 14.81593323 C-12.10248015 11.28012097 -12.2375824 9.23478534 -11.5664978 5.13371277 C-8.04189738 0.6692189 -5.51343844 0.00894672 0 0 Z " fill="#373837" transform="translate(327.5664978027344,50.86628723144531)"/>
<path d="M0 0 C1.15322754 -0.00861557 2.30645508 -0.01723114 3.49462891 -0.02610779 C7.3124832 -0.04883849 11.12960768 -0.04201514 14.94750977 -0.03295898 C16.92812094 -0.03686933 18.9087325 -0.04078977 20.88933998 -0.04625839 C27.1165772 -0.06325653 33.34356937 -0.059693 39.57080078 -0.04296875 C45.99099297 -0.026049 52.41050518 -0.04187919 58.83062309 -0.07419163 C64.34671092 -0.10090031 69.86258723 -0.10816015 75.37873322 -0.09967655 C78.67157064 -0.09475063 81.96390884 -0.09904651 85.25671196 -0.11746407 C88.92945993 -0.13485575 92.60074864 -0.12040921 96.2734375 -0.09765625 C97.36191483 -0.10934845 98.45039215 -0.12104065 99.57185364 -0.13308716 C106.90610493 -0.04049991 106.90610493 -0.04049991 110.91175842 2.85023499 C112.70141602 5.53344727 112.70141602 5.53344727 112.76391602 9.09594727 C111.63710648 12.74150752 110.66141316 14.2013283 107.70141602 16.53344727 C105.30393868 17.73218593 103.80625624 17.66699164 101.12870789 17.68061829 C100.16555664 17.68777359 99.2024054 17.69492889 98.21006775 17.70230103 C97.14977859 17.70498993 96.08948944 17.70767883 94.99707031 17.71044922 C93.88314911 17.71702042 92.76922791 17.72359161 91.62155151 17.73036194 C87.92291198 17.75012725 84.22431308 17.76176418 80.52563477 17.77172852 C78.63463012 17.77784181 78.63463012 17.77784181 76.70542336 17.7840786 C70.72266619 17.80279818 64.73993377 17.81736144 58.75715512 17.82569057 C51.85204869 17.83546253 44.94726287 17.86178042 38.04226941 17.90219146 C32.06111396 17.93599395 26.08011413 17.94783586 20.09885597 17.95189476 C17.55470416 17.95677499 15.01055611 17.96842949 12.4664669 17.98693275 C8.90869811 18.01120192 5.35177102 18.01038117 1.79394531 18.00341797 C0.21262062 18.02263306 0.21262062 18.02263306 -1.40065002 18.04223633 C-8.5460894 17.99116997 -8.5460894 17.99116997 -12.42936707 15.6290741 C-14.8953536 12.86439361 -15.26305701 11.91713854 -15.61108398 8.15844727 C-15.29858398 4.53344727 -15.29858398 4.53344727 -13.98521423 2.34022522 C-9.62953407 -0.58900067 -5.13084492 -0.03070447 0 0 Z " fill="#383A38" transform="translate(331.298583984375,136.466552734375)"/>
<path d="M0 0 C6.33502669 3.62001525 10.88795351 8.56127142 13.1484375 15.57421875 C14.76062844 23.56910004 14.70753169 31.04671192 10.17578125 38.00390625 C5.93432064 43.29237728 1.18491808 46.96952457 -5.375 48.9375 C-14.36616311 49.76442449 -21.11392064 48.534582 -28.375 42.9375 C-34.32869964 37.24454633 -37.38387012 31.3212366 -37.875 23.0625 C-37.62634825 16.31782139 -34.99270109 10.85092464 -30.5078125 5.859375 C-21.79239976 -2.21170761 -11.13381017 -5.08830238 0 0 Z " fill="#3B5F94" transform="translate(216.375,386.0625)"/>
<path d="M0 0 C0.66 0 1.32 0 2 0 C2 31.02 2 62.04 2 94 C-4.51825687 88.56811927 -6.68583225 84.5134248 -10 77 C-10.32097656 76.28328125 -10.64195313 75.5665625 -10.97265625 74.828125 C-18.35830457 56.86504064 -16.69023481 33.64798241 -10.25 15.6875 C-7.83638166 10.09015942 -4.33240111 4.33240111 0 0 Z " fill="#B2C9D9" transform="translate(32,158)"/>
<path d="M0 0 C5.61 0 11.22 0 17 0 C17.34028999 15.82348447 15.15568366 31.84558634 4.6875 44.5 C2 47 2 47 0 47 C0 31.49 0 15.98 0 0 Z " fill="#AEC5D4" transform="translate(375,205)"/>
<path d="M0 0 C3.24717398 2.61577904 5.77615361 4.65791644 6.70703125 8.890625 C7.0434338 13.49073428 6.39611956 16.22674163 3.4375 19.8125 C0.28003345 23.18046432 -2.57309612 23.97741267 -7.125 24.125 C-10.52825669 24.08626374 -11.65954487 23.86638816 -14.6875 22.0625 C-18.71250906 17.67158103 -19.19036108 14.04501224 -19.0703125 8.22265625 C-18.61108154 4.76722329 -17.32582886 3.10212565 -14.75 0.8125 C-10.43247962 -2.42564028 -4.73705621 -2.045547 0 0 Z " fill="#34D8D8" transform="translate(138.75,189.1875)"/>
<path d="M0 0 C11.22 0 22.44 0 34 0 C31.74506373 10.1472132 31.74506373 10.1472132 28.0625 13 C27.02802734 13.8353125 27.02802734 13.8353125 25.97265625 14.6875 C21.63911643 17.5708057 17.02328315 17.69903293 12 17 C6.22633575 14.8323436 3.13387799 11.49400165 0.59375 5.96484375 C0 4 0 4 0 0 Z " fill="#34D8D8" transform="translate(188,239)"/>
<path d="M0 0 C0.9081803 1.33993815 1.75119369 2.72428312 2.5625 4.125 C5.83093384 9.25879311 9.76501911 12.03351083 15 15 C13.3443723 19.56064113 11.44491374 22.78208803 7 25 C2.10883014 25.90780113 -1.67444884 25.77323818 -6 23.25 C-9.93749745 18.82031537 -10.43999749 15.21487834 -10.3203125 9.41015625 C-9.86108154 5.95472329 -8.57582886 4.28962565 -6 2 C-3.77661117 0.62673043 -2.60417425 0 0 0 Z " fill="#34D7D7" transform="translate(275,188)"/>
</svg>
